# xmcd
#
# Track frame offsets: 
#        150
#        17605
#        35950
#
# Disc length: 703 seconds
#
# Revision: 1
# Processed by: cddbd v1.5.2PL0 Copyright (c) Steve Scherf et al.
# Submitted via: ExactAudioCopy v0.99pb5
#
DISCID=1f02bd03
DTITLE=Black Crowes - Good Friday
DYEAR=1996
DGENRE=Rock
TTITLE0=Good Friday
TTITLE1=Pimpers Paradise
TTITLE2=Somebody's On Your Case
EXTD=www.CatherineCountry.com
EXTT0=
EXTT1=
EXTT2=
PLAYORDER=
